<svg xmlns="http://www.w3.org/2000/svg" viewBox="0 0 240 336" width="240" height="336"><rect x="3" y="3" width="234" height="330" rx="16" fill="#fdfbf4" stroke="#cbbfa6" stroke-width="3"/><rect x="32" y="32" width="176" height="272" rx="10" fill="none" stroke="#c0392b" stroke-width="2" opacity="0.45"/><rect x="40" y="40" width="160" height="256" rx="8" fill="#c0392b" opacity="0.07"/><text x="120" y="176" text-anchor="middle" font-family="Georgia,'Times New Roman',serif" font-size="100" font-weight="700" fill="#c0392b">K</text><g transform="translate(120,242) scale(0.5) translate(-50,-50)"><path d="M50 92 C50 92 8 60 8 34 C8 18 20 6 34 6 C43 6 48 11 50 18 C52 11 57 6 66 6 C80 6 92 18 92 34 C92 60 50 92 50 92 Z" fill="#c0392b"/></g><g transform="translate(16,14)"><text x="0" y="30" font-family="Georgia,'Times New Roman',serif" font-size="34" font-weight="700" fill="#c0392b">K</text><g transform="translate(18,54) scale(0.22) translate(-50,-50)"><path d="M50 92 C50 92 8 60 8 34 C8 18 20 6 34 6 C43 6 48 11 50 18 C52 11 57 6 66 6 C80 6 92 18 92 34 C92 60 50 92 50 92 Z" fill="#c0392b"/></g></g><g transform="rotate(180 120 168)"><g transform="translate(16,14)"><text x="0" y="30" font-family="Georgia,'Times New Roman',serif" font-size="34" font-weight="700" fill="#c0392b">K</text><g transform="translate(18,54) scale(0.22) translate(-50,-50)"><path d="M50 92 C50 92 8 60 8 34 C8 18 20 6 34 6 C43 6 48 11 50 18 C52 11 57 6 66 6 C80 6 92 18 92 34 C92 60 50 92 50 92 Z" fill="#c0392b"/></g></g></g></svg>
